<?xml version="1.0" standalone="no"?>
<!DOCTYPE svg PUBLIC "-//W3C//DTD SVG 20010904//EN"
 "http://www.w3.org/TR/2001/REC-SVG-20010904/DTD/svg10.dtd">
<svg version="1.0" xmlns="http://www.w3.org/2000/svg"
 width="297.000000pt" height="300.000000pt" viewBox="0 0 297.000000 300.000000"
 preserveAspectRatio="xMidYMid meet">

<g transform="translate(0.000000,300.000000) scale(0.100000,-0.100000)"
fill="#000000" stroke="none">
<path d="M20 1505 l0 -1495 1468 2 1467 3 3 1493 2 1492 -1470 0 -1470 0 0
-1495z m2910 5 l0 -1470 -1445 0 -1445 0 0 1470 0 1470 1445 0 1445 0 0 -1470z"/>
<path d="M1450 2711 c-78 -16 -156 -84 -181 -157 -21 -64 -17 -182 10 -237 38
-79 126 -136 209 -137 77 0 152 -46 190 -115 15 -26 17 -75 20 -358 3 -355 -2
-409 -44 -464 -93 -122 -301 -83 -344 65 -7 24 -10 127 -8 289 l3 251 30 43
c33 47 111 94 138 83 9 -3 19 -14 22 -25 4 -12 16 -19 31 -19 22 0 24 3 19 23
-29 92 -138 87 -227 -11 -59 -66 -63 -88 -63 -372 l0 -255 28 -58 c73 -147
250 -182 374 -73 83 73 83 71 83 484 0 392 -1 396 -56 469 -34 45 -93 73 -178
85 -79 11 -109 24 -148 65 -40 41 -58 94 -58 165 1 80 30 142 89 183 37 26 51
30 109 30 82 0 130 -26 167 -89 30 -52 32 -80 4 -99 -12 -9 -19 -23 -17 -36 3
-21 4 -21 38 -4 66 34 64 110 -5 190 -57 67 -153 101 -235 84z"/>
<path d="M934 834 c-21 -5 -22 -12 -29 -192 -10 -259 5 -307 96 -300 36 2 44
7 44 23 0 17 -6 20 -38 18 -35 -2 -39 0 -53 33 -11 27 -13 60 -8 154 l7 120
36 0 c20 0 42 4 50 9 24 15 1 31 -45 31 -46 0 -49 4 -38 48 5 18 13 22 45 22
35 0 59 14 45 27 -7 8 -87 12 -112 7z"/>
<path d="M1510 831 l-25 -7 -3 -207 c-3 -226 4 -261 52 -273 43 -11 81 -1 81
21 0 16 -7 20 -35 20 -26 0 -37 6 -47 25 -14 27 -16 176 -5 245 7 39 8 40 47
40 30 0 41 4 43 18 3 14 -4 17 -43 17 -46 0 -46 0 -43 33 3 30 6 32 46 35 27
2 42 8 42 17 0 24 -53 32 -110 16z"/>
<path d="M1854 834 c-21 -5 -22 -12 -29 -192 -10 -259 5 -307 96 -300 36 2 44
7 44 23 0 17 -7 20 -40 20 -37 0 -41 2 -52 38 -9 27 -11 72 -6 153 l6 114 36
0 c20 0 42 4 50 9 24 15 1 31 -45 31 -46 0 -49 4 -38 48 5 18 13 22 45 22 35
0 59 14 45 27 -7 8 -87 12 -112 7z"/>
<path d="M2594 834 c-20 -5 -22 -13 -28 -193 -10 -260 4 -306 95 -299 36 2 44
7 44 23 0 17 -7 20 -40 20 -37 0 -41 3 -52 36 -8 24 -10 75 -6 153 l6 116 33
0 c42 0 64 9 64 26 0 10 -14 14 -50 14 -52 0 -55 4 -44 48 5 18 13 22 45 22
35 0 59 14 45 27 -7 7 -86 12 -112 7z"/>
<path d="M2395 638 c-4 -106 -5 -215 -3 -243 l3 -50 75 0 c60 0 75 3 75 15 0
11 -14 16 -58 18 l-58 3 3 222 c3 199 1 222 -13 225 -15 3 -18 -19 -24 -190z"/>
<path d="M335 785 c-28 -27 -32 -68 -14 -139 9 -38 18 -48 60 -70 56 -31 67
-62 53 -143 -8 -39 -14 -49 -37 -57 -34 -12 -47 2 -47 51 0 35 -17 53 -31 32
-14 -23 -10 -86 7 -103 21 -22 96 -21 123 2 18 14 23 31 28 93 7 91 -8 127
-66 160 -44 24 -61 54 -61 104 0 36 21 65 49 65 27 0 41 -21 41 -62 0 -26 4
-38 14 -38 29 0 36 72 10 108 -22 32 -96 31 -129 -3z"/>
<path d="M541 788 c-5 -13 -15 -104 -22 -203 -18 -251 -18 -250 6 -250 18 0
21 9 28 110 13 188 19 220 44 223 25 4 28 -14 39 -219 3 -64 9 -121 13 -128 5
-7 23 -11 42 -9 26 2 34 8 34 23 0 12 -7 20 -17 20 -9 0 -19 2 -22 5 -2 3 -9
97 -15 209 -12 231 -15 241 -83 241 -31 0 -40 -5 -47 -22z m74 -48 c0 -28 -4
-36 -21 -38 -18 -3 -21 2 -18 35 3 48 1 45 22 41 12 -2 17 -13 17 -38z"/>
<path d="M694 797 c-3 -8 6 -59 20 -113 14 -54 32 -139 41 -189 17 -97 32
-145 46 -145 15 0 29 38 29 77 0 21 11 88 25 148 25 112 33 219 16 230 -15 9
-20 -7 -37 -105 -9 -51 -21 -111 -28 -134 l-12 -41 -8 45 c-3 25 -19 87 -34
139 -26 90 -45 120 -58 88z"/>
<path d="M1067 804 c-12 -13 4 -24 36 -24 l32 0 -3 -212 c-3 -218 3 -255 34
-214 10 15 14 50 14 131 0 62 3 153 6 203 l7 91 31 3 c17 2 31 8 31 13 0 11
-177 20 -188 9z"/>
<path d="M1285 584 c-7 -233 -4 -262 30 -234 12 10 15 39 15 161 l0 149 35 0
34 0 3 -157 c3 -133 5 -158 18 -158 13 0 15 34 18 233 2 227 2 232 -18 232
-18 0 -20 -6 -20 -55 l0 -55 -35 0 -35 0 0 55 c0 47 -3 55 -19 55 -17 0 -19
-15 -26 -226z"/>
<path d="M1664 795 c-9 -22 1 -417 11 -438 4 -10 13 -16 19 -14 7 2 12 47 14
129 l3 125 35 6 c54 9 64 22 64 84 0 63 -20 108 -52 117 -42 11 -88 7 -94 -9z
m96 -45 c6 -12 10 -37 8 -57 -2 -30 -8 -38 -30 -44 l-28 -7 0 64 c0 57 2 64
20 64 10 0 24 -9 30 -20z"/>
<path d="M2047 798 c-30 -24 -37 -68 -37 -242 0 -152 2 -175 18 -189 23 -21
66 -31 98 -23 44 11 54 55 54 240 0 90 -3 172 -6 181 -14 36 -94 57 -127 33z
m83 -43 c10 -12 11 -55 6 -188 -4 -95 -11 -176 -17 -181 -5 -6 -19 -6 -36 0
l-28 10 3 174 c2 100 8 180 14 188 14 17 43 15 58 -3z"/>
<path d="M2223 795 c-8 -22 3 -416 12 -438 4 -10 13 -16 19 -14 7 2 12 47 14
129 l3 125 35 6 c56 9 64 22 64 94 0 55 -4 67 -25 88 -29 30 -111 36 -122 10z
m97 -45 c6 -12 10 -38 8 -58 -3 -32 -7 -37 -30 -40 -28 -3 -28 -3 -28 57 0 54
2 61 20 61 10 0 24 -9 30 -20z"/>
</g>
</svg>
